<svg width="90" height="90" viewBox="0 0 90 90" fill="none" xmlns="http://www.w3.org/2000/svg">
<path fill-rule="evenodd" clip-rule="evenodd" d="M54.3137 44.7588C54.3137 42.3916 53.8403 40.1457 52.9525 38.082L50.1709 39.8422C50.7628 41.3597 51.1179 42.9985 51.1179 44.7588C51.1179 52.1033 45.3179 58.0517 38.1568 58.0517C30.9957 58.0517 25.1958 52.1033 25.1958 44.7588C25.1958 37.4143 30.9957 31.4659 38.1568 31.4659C42.2404 31.4659 45.8506 33.4082 48.2179 36.3824L50.9995 34.6222C48.0403 30.6768 43.3649 28.1275 38.1568 28.1275C29.2202 28.1275 21.9999 35.5934 21.9999 44.6981C21.9999 50.4037 24.8407 55.4417 29.1018 58.4159L26.6753 64.0001C26.3794 64.7285 26.6753 65.5783 27.3855 65.8818C28.0957 66.1853 28.9243 65.8818 29.2202 65.1534L31.5283 59.812C33.5405 60.7224 35.7895 61.2687 38.1568 61.2687C40.5241 61.2687 42.7731 60.8438 44.7853 59.9333L47.0934 65.2748C47.3893 66.0032 48.2179 66.3067 48.9281 66.0032C49.6383 65.6997 49.9342 64.8499 49.6383 64.1215L47.2118 58.5373C51.5321 55.5024 54.3137 50.4644 54.3137 44.7588ZM44.4894 43.4841C44.5486 43.909 44.6077 44.3339 44.6077 44.8195C44.6077 48.4614 41.7078 51.4356 38.1568 51.4356C34.6058 51.4356 31.7059 48.4614 31.7059 44.8195C31.7059 41.1776 34.6058 38.2034 38.1568 38.2034C39.8731 38.2034 41.471 38.9318 42.5955 40.0243L45.3771 38.2641C43.6016 36.2003 40.9976 34.865 38.0976 34.865C32.7712 34.865 28.3916 39.3567 28.3916 44.8195C28.3916 50.2823 32.7712 54.774 38.0976 54.774C43.4241 54.774 47.8036 50.2823 47.8036 44.8195C47.8036 43.7269 47.6261 42.6951 47.3302 41.6632L44.4894 43.4841ZM66.1503 31.2231C65.6768 30.9803 65.085 30.7982 64.6116 30.6161C63.8422 30.3126 63.132 30.0091 62.3034 29.8877C62.3626 29.5842 62.4218 29.3414 62.481 29.038C62.5993 28.4917 62.7177 27.8847 62.7769 27.3384C62.8361 26.7921 62.8952 26.2458 62.8952 25.6996C62.8952 25.3961 62.8952 25.1533 62.8952 24.8498C62.8952 24.5463 62.8952 24.3035 62.8952 24C62.7769 24.2428 62.5993 24.4856 62.481 24.7284C62.3626 24.9712 62.2442 25.214 62.1259 25.5175C61.8891 26.003 61.7116 26.5493 61.534 27.0349C61.3565 27.5812 61.1789 28.0668 61.0606 28.6131C60.883 29.0987 60.8238 29.5235 60.7055 30.0091L59.3443 30.8589C59.4035 30.434 59.4035 30.0091 59.4626 29.5235C59.5218 28.9773 59.581 28.431 59.581 27.8847C59.581 27.5812 59.581 27.3384 59.581 27.0349C59.581 26.7314 59.581 26.4886 59.581 26.1851C59.4626 26.4279 59.2851 26.6707 59.1667 26.9135C59.0484 27.1563 58.93 27.3991 58.8116 27.7026C58.5749 28.1882 58.3974 28.7345 58.2198 29.22C58.0423 29.7663 57.8647 30.2519 57.7463 30.7982C57.628 31.2231 57.5096 31.648 57.3912 32.0729L55.8525 33.044C55.9709 32.5584 56.03 32.0729 56.03 31.5873C56.0892 31.041 56.1484 30.4947 56.1484 29.9484C56.1484 29.6449 56.1484 29.4021 56.1484 29.0987C56.1484 28.7952 56.1484 28.5524 56.1484 28.2489C56.03 28.4917 55.8525 28.7345 55.7341 28.9773C55.6158 29.22 55.4974 29.4628 55.379 29.7663C55.1423 30.2519 54.9647 30.7982 54.7872 31.2838C54.6096 31.8301 54.4321 32.3157 54.3137 32.8619C54.1362 33.3475 54.077 33.7724 53.9586 34.1973L38.1568 44.2125V42.8165L39.6956 41.8453C39.2221 41.6025 38.7486 41.4811 38.1568 41.4811C37.8017 41.4811 37.5058 41.5418 37.2099 41.6025C35.9079 42.0274 34.9609 43.302 34.9609 44.7588C34.9609 45.0016 34.9609 45.1837 35.0201 45.4265C35.316 46.9439 36.6181 48.0972 38.216 48.0972C39.7547 48.0972 41.0568 46.9439 41.3527 45.4872L38.5119 47.2474C38.3935 47.3081 38.2752 47.3688 38.1568 47.4295V46.0335L54.8464 35.472C55.7933 35.6541 56.7402 35.8362 57.6872 36.0182C58.2198 36.0789 58.7524 36.1396 59.2851 36.2003C59.8177 36.2003 60.3504 36.261 60.9422 36.2003C60.4688 35.8969 59.9361 35.6541 59.4626 35.4113C59.0484 35.1685 58.5749 34.9864 58.0423 34.8043C57.5688 34.6222 57.1545 34.4401 56.681 34.258L58.1014 33.3475C59.1075 33.5903 60.0545 33.7724 61.0606 33.8938C61.5932 33.9545 62.1259 34.0152 62.6585 34.0759C63.1912 34.0759 63.7238 34.1366 64.3156 34.0759C63.8422 33.7724 63.3687 33.5296 62.8952 33.2868C62.4218 32.9833 61.9483 32.8012 61.4749 32.6191C61.0014 32.4371 60.4688 32.3157 59.9953 32.1336L61.534 31.1624C62.481 31.3445 63.4279 31.5266 64.3748 31.7087C64.9075 31.7694 65.4401 31.8301 65.9728 31.8908C66.5054 31.8908 67.0381 31.9515 67.6299 31.8908C67.2156 31.7087 66.683 31.4659 66.1503 31.2231ZM36.5589 46.1549C36.4997 46.0942 36.4405 46.0335 36.3813 45.9121C36.3221 45.7907 36.263 45.73 36.2038 45.6086C36.1446 45.4872 36.0854 45.3658 36.0854 45.2444C36.0854 45.123 36.0262 45.0016 36.0262 44.8195C36.0262 44.5767 36.0854 44.2732 36.1446 44.0911C36.2038 43.8483 36.3221 43.6662 36.4405 43.5448C36.6772 43.2413 36.8548 43.1199 36.8548 43.1199C36.8548 43.1199 36.7956 43.3627 36.7364 43.7269C36.6772 44.0911 36.5589 44.516 36.618 44.8802C36.618 45.3051 36.7364 45.73 36.7956 46.0335C36.8548 46.0942 36.8548 46.2156 36.8548 46.2762C36.8548 46.3369 36.914 46.3976 36.914 46.4583C36.7956 46.3976 36.6772 46.3369 36.5589 46.1549Z" fill="#FF780C"/>
<path d="M44.9999 9C64.8821 9 80.9999 25.1178 80.9999 45C80.9999 64.8823 64.8821 81 44.9999 81C25.1176 81 8.99988 64.8823 8.99988 45C8.99988 25.1178 25.1176 9 44.9999 9Z" stroke="#FF780C" stroke-width="6"/>
</svg>
