<svg width="90" height="90" viewBox="0 0 90 90" fill="none" xmlns="http://www.w3.org/2000/svg">
<path fill-rule="evenodd" clip-rule="evenodd" d="M33.4229 56.239H55.8349V39.985H33.4229V56.239ZM56.4309 31H32.8269C31.8179 31 30.9999 31.818 30.9999 32.827V56.835C30.9999 57.844 31.8179 58.662 32.8269 58.662H56.4309C57.4399 58.662 58.2579 57.844 58.2579 56.835V32.827C58.2579 31.818 57.4399 31 56.4309 31Z" fill="#4BB7A0"/>
<path fill-rule="evenodd" clip-rule="evenodd" d="M35.2399 49.867H38.5719V46.536H35.2399V49.867Z" fill="#4BB7A0"/>
<path fill-rule="evenodd" clip-rule="evenodd" d="M40.4539 49.867H43.7859V46.536H40.4539V49.867Z" fill="#4BB7A0"/>
<path fill-rule="evenodd" clip-rule="evenodd" d="M45.6678 49.867H48.9998V46.536H45.6678V49.867Z" fill="#4BB7A0"/>
<path fill-rule="evenodd" clip-rule="evenodd" d="M50.8809 49.867H54.2129V46.536H50.8809V49.867Z" fill="#4BB7A0"/>
<path fill-rule="evenodd" clip-rule="evenodd" d="M40.4539 44.819H43.7859V41.488H40.4539V44.819Z" fill="#4BB7A0"/>
<path fill-rule="evenodd" clip-rule="evenodd" d="M45.6678 44.819H48.9998V41.488H45.6678V44.819Z" fill="#4BB7A0"/>
<path fill-rule="evenodd" clip-rule="evenodd" d="M50.8809 44.819H54.2129V41.488H50.8809V44.819Z" fill="#4BB7A0"/>
<path fill-rule="evenodd" clip-rule="evenodd" d="M35.2399 54.915H38.5719V51.584H35.2399V54.915Z" fill="#4BB7A0"/>
<path fill-rule="evenodd" clip-rule="evenodd" d="M40.4539 54.915H43.7859V51.584H40.4539V54.915Z" fill="#4BB7A0"/>
<path fill-rule="evenodd" clip-rule="evenodd" d="M45.6678 54.915H48.9998V51.584H45.6678V54.915Z" fill="#4BB7A0"/>
<path d="M44.9999 9C64.8821 9 80.9999 25.1178 80.9999 45C80.9999 64.8823 64.8821 81 44.9999 81C25.1176 81 8.99988 64.8823 8.99988 45C8.99988 25.1178 25.1176 9 44.9999 9Z" stroke="#4BB7A0" stroke-width="6"/>
</svg>
